<?xml version="1.0" encoding="utf-8"?>
<svg id="master-artboard" viewBox="0 0 1214.5758056640625 384.34478759765625" version="1.1" xmlns="http://www.w3.org/2000/svg" x="0px" y="0px" enable-background="new 0 0 1400 980" width="1214.5758056640625px" height="384.34478759765625px"><defs><linearGradient id="gradient-0" gradientUnits="userSpaceOnUse" x1="559.5999755859375" y1="143.3000030517578" x2="559.5999755859375" y2="193.3000030517578">
                <stop offset="0" style="stop-color: #58595b"/>
                <stop offset="1" style="stop-color: #262627"/>
              </linearGradient><linearGradient id="gradient-1" gradientUnits="userSpaceOnUse" x1="500.29998779296875" y1="378.1000061035156" x2="500.29998779296875" y2="421.6999816894531">
                <stop offset="0" style="stop-color: #58595b"/>
                <stop offset="1" style="stop-color: #262627"/>
              </linearGradient><linearGradient id="gradient-2" gradientUnits="userSpaceOnUse" x1="525.2999572753906" y1="201.2999725341797" x2="525.2999572753906" y2="296.63165283203125">
                <stop offset="0" style="stop-color: #58595b"/>
                <stop offset="1" style="stop-color: #262627"/>
              </linearGradient><linearGradient id="gradient-3" gradientUnits="userSpaceOnUse" x1="456.07659912109375" y1="274.3999938964844" x2="456.07659912109375" y2="356.3251647949219">
                <stop offset="0" style="stop-color: #58595b"/>
                <stop offset="1" style="stop-color: #262627"/>
              </linearGradient><linearGradient id="gradient-4" gradientUnits="userSpaceOnUse" x1="469.05322265625" y1="294.20001220703125" x2="469.05322265625" y2="406.522216796875">
                <stop offset="0" style="stop-color: #58595b"/>
                <stop offset="1" style="stop-color: #262627"/>
              </linearGradient><linearGradient id="gradient-5" gradientUnits="userSpaceOnUse" x1="1210.5" y1="177.6999969482422" x2="1210.5" y2="227.6999969482422">
                <stop offset="0" style="stop-color: #58595b"/>
                <stop offset="1" style="stop-color: #262627"/>
              </linearGradient><linearGradient id="gradient-6" gradientUnits="userSpaceOnUse" x1="1132.4000244140625" y1="100.0999984741211" x2="1132.4000244140625" y2="143.89999389648438">
                <stop offset="0" style="stop-color: #58595b"/>
                <stop offset="1" style="stop-color: #262627"/>
              </linearGradient><linearGradient id="gradient-7" gradientUnits="userSpaceOnUse" x1="1185.7876586914062" y1="133.3000030517578" x2="1185.7876586914062" y2="452.9829864501953">
                <stop offset="0" style="stop-color: #58595b"/>
                <stop offset="1" style="stop-color: #262627"/>
              </linearGradient><linearGradient id="gradient-8" gradientUnits="userSpaceOnUse" x1="826.7000122070312" y1="193.3000030517578" x2="826.7000122070312" y2="243.3000030517578">
                <stop offset="0" style="stop-color: #58595b"/>
                <stop offset="1" style="stop-color: #262627"/>
              </linearGradient><linearGradient id="gradient-9" gradientUnits="userSpaceOnUse" x1="721.7999877929688" y1="194.89999389648438" x2="721.7999877929688" y2="236.89999389648438">
                <stop offset="0" style="stop-color: #58595b"/>
                <stop offset="1" style="stop-color: #262627"/>
              </linearGradient><linearGradient id="gradient-10" gradientUnits="userSpaceOnUse" x1="841.3897094726562" y1="244.89999389648438" x2="841.3897094726562" y2="355.1000061035156">
                <stop offset="0" style="stop-color: #58595b"/>
                <stop offset="1" style="stop-color: #262627"/>
              </linearGradient><linearGradient id="gradient-11" gradientUnits="userSpaceOnUse" x1="864.6500549316406" y1="358.4608154296875" x2="864.6500549316406" y2="375.800048828125">
                <stop offset="0" style="stop-color: #58595b"/>
                <stop offset="1" style="stop-color: #262627"/>
              </linearGradient><linearGradient id="gradient-12" gradientUnits="userSpaceOnUse" x1="864.6500549316406" y1="375.3608093261719" x2="864.6500549316406" y2="392.7000427246094">
                <stop offset="0" style="stop-color: #58595b"/>
                <stop offset="1" style="stop-color: #262627"/>
              </linearGradient><linearGradient id="gradient-13" gradientUnits="userSpaceOnUse" x1="864.6500549316406" y1="393.16082763671875" x2="864.6500549316406" y2="410.50006103515625">
                <stop offset="0" style="stop-color: #58595b"/>
                <stop offset="1" style="stop-color: #262627"/>
              </linearGradient><linearGradient id="gradient-14" gradientUnits="userSpaceOnUse" x1="183.5" y1="167.3000030517578" x2="183.5" y2="210.90000915527344">
                <stop offset="0" style="stop-color: #58595b"/>
                <stop offset="1" style="stop-color: #262627"/>
              </linearGradient><linearGradient id="gradient-15" gradientUnits="userSpaceOnUse" x1="227" y1="100.79999542236328" x2="227" y2="127.4000015258789">
                <stop offset="0" style="stop-color: #58595b"/>
                <stop offset="1" style="stop-color: #262627"/>
              </linearGradient><linearGradient id="gradient-16" gradientUnits="userSpaceOnUse" x1="101.39999771118164" y1="123.79999542236328" x2="101.39999771118164" y2="180.59999084472656">
                <stop offset="0" style="stop-color: #58595b"/>
                <stop offset="1" style="stop-color: #262627"/>
              </linearGradient><linearGradient id="gradient-17" gradientUnits="userSpaceOnUse" x1="198.3685531616211" y1="135.5894317626953" x2="198.3685531616211" y2="401.9043731689453">
                <stop offset="0" style="stop-color: #58595b"/>
                <stop offset="1" style="stop-color: #262627"/>
              </linearGradient><linearGradient id="gradient-18" gradientUnits="userSpaceOnUse" x1="111.04999923706055" y1="172.1999969482422" x2="111.04999923706055" y2="235.10000610351562">
                <stop offset="0" style="stop-color: #58595b"/>
                <stop offset="1" style="stop-color: #262627"/>
              </linearGradient><linearGradient id="gradient-19" gradientUnits="userSpaceOnUse" x1="848.0999755859375" y1="594.0999755859375" x2="848.0999755859375" y2="632.9000244140625">
                <stop offset="0" style="stop-color: #58595b"/>
                <stop offset="1" style="stop-color: #262627"/>
              </linearGradient><linearGradient id="gradient-20" gradientUnits="userSpaceOnUse" x1="766.2000122070312" y1="541.2999877929688" x2="766.2000122070312" y2="577.7000122070312">
                <stop offset="0" style="stop-color: #58595b"/>
                <stop offset="1" style="stop-color: #262627"/>
              </linearGradient><linearGradient id="gradient-21" gradientUnits="userSpaceOnUse" x1="809.3999633789062" y1="545.4000244140625" x2="809.3999633789062" y2="699.0999755859375">
                <stop offset="0" style="stop-color: #58595b"/>
                <stop offset="1" style="stop-color: #262627"/>
              </linearGradient><linearGradient id="gradient-22" gradientUnits="userSpaceOnUse" x1="865.9352416992188" y1="716.5999755859375" x2="865.9352416992188" y2="858.2999877929688">
                <stop offset="0" style="stop-color: #58595b"/>
                <stop offset="1" style="stop-color: #262627"/>
              </linearGradient><linearGradient id="gradient-23" gradientUnits="userSpaceOnUse" x1="255.32339477539062" y1="725.2000122070312" x2="255.32339477539062" y2="807.2251586914062">
                <stop offset="0" style="stop-color: #58595b"/>
                <stop offset="1" style="stop-color: #262627"/>
              </linearGradient><linearGradient id="gradient-24" gradientUnits="userSpaceOnUse" x1="243.04680633544922" y1="746.7000122070312" x2="243.04680633544922" y2="859.022216796875">
                <stop offset="0" style="stop-color: #58595b"/>
                <stop offset="1" style="stop-color: #262627"/>
              </linearGradient><linearGradient id="gradient-25" gradientUnits="userSpaceOnUse" x1="158.1999969482422" y1="546.7999877929688" x2="158.1999969482422" y2="582.6000366210938">
                <stop offset="0" style="stop-color: #58595b"/>
                <stop offset="1" style="stop-color: #262627"/>
              </linearGradient><linearGradient id="gradient-26" gradientUnits="userSpaceOnUse" x1="147" y1="609.7999877929688" x2="147" y2="658.7999877929688">
                <stop offset="0" style="stop-color: #58595b"/>
                <stop offset="1" style="stop-color: #262627"/>
              </linearGradient><linearGradient id="gradient-27" gradientUnits="userSpaceOnUse" x1="165.53646087646484" y1="560.9361572265625" x2="165.53646087646484" y2="752.2000122070312">
                <stop offset="0" style="stop-color: #58595b"/>
                <stop offset="1" style="stop-color: #262627"/>
              </linearGradient><linearGradient id="gradient-28" gradientUnits="userSpaceOnUse" x1="486" y1="541.2999877929688" x2="486" y2="584.8999633789062">
                <stop offset="0" style="stop-color: #58595b"/>
                <stop offset="1" style="stop-color: #262627"/>
              </linearGradient><linearGradient id="gradient-29" gradientUnits="userSpaceOnUse" x1="611.5999755859375" y1="600.5999755859375" x2="611.5999755859375" y2="642.4000244140625">
                <stop offset="0" style="stop-color: #58595b"/>
                <stop offset="1" style="stop-color: #262627"/>
              </linearGradient><linearGradient id="gradient-30" gradientUnits="userSpaceOnUse" x1="496.6478729248047" y1="597.9000244140625" x2="496.6478729248047" y2="828.382568359375">
                <stop offset="0" style="stop-color: #58595b"/>
                <stop offset="1" style="stop-color: #262627"/>
              </linearGradient><linearGradient id="gradient-31" gradientUnits="userSpaceOnUse" x1="586.5" y1="575.7999877929688" x2="586.5" y2="599.3999633789062">
                <stop offset="0" style="stop-color: #58595b"/>
                <stop offset="1" style="stop-color: #262627"/>
              </linearGradient><linearGradient id="gradient-32" gradientUnits="userSpaceOnUse" x1="1140.0999755859375" y1="560.6000366210938" x2="1140.0999755859375" y2="610.2000122070312">
                <stop offset="0" style="stop-color: #58595b"/>
                <stop offset="1" style="stop-color: #262627"/>
              </linearGradient><linearGradient id="gradient-33" gradientUnits="userSpaceOnUse" x1="1146.6204833984375" y1="617.0953979492188" x2="1146.6204833984375" y2="874.56787109375">
                <stop offset="0" style="stop-color: #58595b"/>
                <stop offset="1" style="stop-color: #262627"/>
              </linearGradient><linearGradient id="gradient-34" gradientUnits="userSpaceOnUse" x1="1303.8512573242188" y1="581.9561157226562" x2="1303.8512573242188" y2="640.4999389648438">
                <stop offset="0" style="stop-color: #58595b"/>
                <stop offset="1" style="stop-color: #262627"/>
              </linearGradient></defs><rect id="ee-background" x="0" y="0" width="1214.5758056640625" height="384.34478759765625" style="fill: white; fill-opacity: 0; pointer-events: none;"/>

<g transform="matrix(1, 0, 0, 1, -67.2778582572937, -86.96894073486328)">
		<path d="M 584.599976 168.300003 A 25 25 0 0 1 559.599976 193.300003 A 25 25 0 0 1 534.599976 168.300003 A 25 25 0 0 1 559.599976 143.300003 A 25 25 0 0 1 584.599976 168.300003 Z" fill="#58595B" style="fill-opacity: 1; stroke-opacity: 1; fill: rgb(0, 190, 197);"/>
		<path d="M 522.099987 399.899994 A 21.799999 21.799999 0 0 1 500.299988 421.699993 A 21.799999 21.799999 0 0 1 478.499989 399.899994 A 21.799999 21.799999 0 0 1 500.299988 378.099995 A 21.799999 21.799999 0 0 1 522.099987 399.899994 Z" fill="#58595B" style="fill-opacity: 1; stroke-opacity: 1; fill: rgb(0, 190, 197);"/>
		<path fill="#58595B" d="M563.2,294.8L563.2,294.8c-4.2-3-5.2-8.9-2.3-13.2l23.8-34.7l-12.9-10.1l-42,55.7l-45.2-32.3l25.8-36.3&#10;&#9;&#9;&#9;h-70.2c-6.2,0-11.3-5.1-11.3-11.3v0c0-6.2,5.1-11.3,11.3-11.3h131.5l50,41.2l-45.9,50.9C572.6,297.1,567.1,297.7,563.2,294.8z" style="fill-opacity: 1; stroke-opacity: 1; fill: rgb(0, 190, 197);"/>
		<path fill="#58595B" d="M470.8,274.4l20.2,17.8L445.7,351c-4.8,6.2-13.7,7.1-19.7,2.1l0,0c-5.6-4.7-6.5-13.1-1.9-18.9L470.8,274.4&#10;&#9;&#9;&#9;z" style="fill-opacity: 1; stroke-opacity: 1; fill: rgb(0, 190, 197);"/>
		<path fill="#58595B" d="M495.9,294.2l21,17.8l-73.3,89.9c-4.7,5.7-13.2,6.2-18.5,1.1v0c-4.7-4.5-5.2-11.8-1.2-16.9L495.9,294.2z" style="fill-opacity: 1; stroke-opacity: 1; fill: rgb(0, 190, 197);"/>
	</g><path d="M 1235.5 202.699997 A 25 25 0 0 1 1210.5 227.699997 A 25 25 0 0 1 1185.5 202.699997 A 25 25 0 0 1 1210.5 177.699997 A 25 25 0 0 1 1235.5 202.699997 Z" fill="#58595B" transform="matrix(1, 0, 0, 1, -67.2778582572937, -86.96894073486328)" style="fill-opacity: 1; stroke-opacity: 1; fill: rgb(0, 190, 197);"/><path d="M 1154.300024 122 A 21.9 21.9 0 0 1 1132.400024 143.9 A 21.9 21.9 0 0 1 1110.500025 122 A 21.9 21.9 0 0 1 1132.400024 100.1 A 21.9 21.9 0 0 1 1154.300024 122 Z" fill="#58595B" transform="matrix(1, 0, 0, 1, -67.2778582572937, -86.96894073486328)" style="fill-opacity: 1; stroke-opacity: 1; fill: rgb(0, 190, 197);"/><path fill="#58595B" d="M1167.3,133.3L1167.3,133.3c7.2,0,13,5.8,13,13v89.5l78.6,40.4c6.1,3.1,8.4,10.6,5.3,16.6l0,0&#10;&#9;&#9;&#9;c-3.1,6-10.5,8.4-16.5,5.3l-48-24.3l-0.5,109.8l48.4,48.7c4.4,4.4,4.7,11.5,0.8,16.3v0c-4.5,5.4-12.7,5.9-17.8,1l-58.4-56.3&#10;&#9;&#9;&#9;l-0.8-78.3l-39,42l23.4,48.3c3.2,6.6,0.1,14.5-6.7,17.3l0,0c-6.4,2.6-13.7-0.5-16.4-6.9l-26.7-64.3l48.2-60.5V146.3&#10;&#9;&#9;&#9;C1154.3,139.1,1160.1,133.3,1167.3,133.3z" transform="matrix(1, 0, 0, 1, -67.2778582572937, -86.96894073486328)" style="fill-opacity: 1; stroke-opacity: 1; fill: rgb(0, 190, 197);"/><path d="M 205.299999 189.100006 A 21.799999 21.799999 0 0 1 183.5 210.900005 A 21.799999 21.799999 0 0 1 161.700001 189.100006 A 21.799999 21.799999 0 0 1 183.5 167.300007 A 21.799999 21.799999 0 0 1 205.299999 189.100006 Z" fill="#58595B" transform="matrix(1, 0, 0, 1, -67.2778582572937, -86.96894073486328)" style="fill-opacity: 1; stroke-opacity: 1; fill: rgb(0, 190, 197);"/><path d="M 240.3 114.099998 A 13.3 13.3 0 0 1 227 127.399999 A 13.3 13.3 0 0 1 213.7 114.099998 A 13.3 13.3 0 0 1 227 100.799998 A 13.3 13.3 0 0 1 240.3 114.099998 Z" fill="#58595B" transform="matrix(1, 0, 0, 1, -67.2778582572937, -86.96894073486328)" style="fill-opacity: 1; stroke-opacity: 1; fill: rgb(0, 190, 197);"/><path d="M 123.200001 152.199997 A 21.799999 28.4 0 0 1 101.400002 180.599997 A 21.799999 28.4 0 0 1 79.600002 152.199997 A 21.799999 28.4 0 0 1 101.400002 123.799997 A 21.799999 28.4 0 0 1 123.200001 152.199997 Z" transform="matrix(-0.9801002144813538, 0.19830000400543213, -0.19830000400543213, -0.9801002144813538, 163.59344148635864, 194.31336975097656)" fill="#58595B" style="fill-opacity: 1; stroke-opacity: 1; fill: rgb(0, 190, 197);"/><path fill="#58595B" d="M183.5,232.1l40.2-15.7l16.7-30.9l-3.6-37.6c-0.6-6,3.7-11.4,9.7-12.2l0,0c6.4-0.9,12.1,3.8,12.7,10.2&#10;&#9;&#9;&#9;l4.4,49.4l-27.8,47.2l15.7,41.2l42.4,39.9l-29.5,70.7c-2.2,5.3-7.9,8.1-13.4,6.8h0c-6.6-1.6-10.3-8.6-8.1-15l19.5-55.8l-32.1-31.4&#10;&#9;&#9;&#9;l-1.8,48.3l-67.2,52.1c-5.8,4.5-14.3,3-18.2-3.2l0,0c-3.4-5.4-2.2-12.5,2.9-16.5l55.3-43.3l-0.6-43.6l-12.1-35.1l-30.9-1.8&#10;&#9;&#9;&#9;l-47.7-11.5c-5-1.9-7.9-7.1-7-12.3l0,0c1.1-6.2,7.1-10.2,13.2-8.9l51.7,10.9L183.5,232.1z" transform="matrix(1, 0, 0, 1, -67.2778582572937, -86.96894073486328)" style="stroke: rgb(0, 0, 0); stroke-width: 0; stroke-opacity: 1; fill-opacity: 1; fill: rgb(0, 190, 197);"/><path d="M 101.4000015258789 172.1999969482422 L 111 172.1999969482422 L 120.69999694824219 235.10000610351562 L 115.30000305175781 235.10000610351562 Z" fill="#58595B" transform="matrix(1, 0, 0, 1, -67.2778582572937, -86.96894073486328)" style="fill-opacity: 1; stroke-opacity: 1; fill: rgb(0, 190, 197);"/><path d="M 867.499975 613.5 A 19.4 19.4 0 0 1 848.099976 632.9 A 19.4 19.4 0 0 1 828.699976 613.5 A 19.4 19.4 0 0 1 848.099976 594.1 A 19.4 19.4 0 0 1 867.499975 613.5 Z" fill="#58595B" transform="matrix(1, 0, 0, 1, -71.21608304977417, -503.1079406738281)" style="fill-opacity: 1; stroke-opacity: 1; fill: rgb(0, 190, 197);"/><path d="M 784.400013 559.5 A 18.200001 18.200001 0 0 1 766.200012 577.700001 A 18.200001 18.200001 0 0 1 748.000011 559.5 A 18.200001 18.200001 0 0 1 766.200012 541.299999 A 18.200001 18.200001 0 0 1 784.400013 559.5 Z" fill="#58595B" transform="matrix(1, 0, 0, 1, -71.21608304977417, -503.1079406738281)" style="fill-opacity: 1; stroke-opacity: 1; fill: rgb(0, 190, 197);"/><path fill="#58595B" d="M805.1,545.4L805.1,545.4c7.5,0,13.6,6.1,13.6,13.6V618l52.1,81.1h-72l-14.3-24.2H748v-72.7&#10;&#9;&#9;&#9;c0-7,5.6-12.6,12.6-12.6l0,0c7,0,12.6,5.6,12.6,12.6v47.9h30.9L792,622.2l-0.5-63.2C791.5,551.5,797.6,545.4,805.1,545.4z" transform="matrix(1, 0, 0, 1, -71.21608304977417, -503.1079406738281)" style="fill-opacity: 1; stroke-opacity: 1; fill: rgb(0, 190, 197);"/><path fill="#58595B" d="M879.8,716.6l70.7,122.5c4.9,8.5-1.2,19.2-11.1,19.2h0c-4.6,0-8.9-2.5-11.2-6.6l-61.4-110.8l-52.4,1.8&#10;&#9;&#9;&#9;l43.3,49.1c5.7,6.5,3.9,16.6-3.7,20.7l0,0c-5.7,3.1-12.9,1.6-16.9-3.5l-54.4-69.4c-7.3-9.3-0.7-22.8,11.1-22.8H879.8z" transform="matrix(1, 0, 0, 1, -71.21608304977417, -503.1079406738281)" style="fill-opacity: 1; stroke-opacity: 1; fill: rgb(0, 190, 197);"/>

</svg>